<?xml version="1.0" encoding="UTF-8"?>
<svg xmlns="http://www.w3.org/2000/svg" xmlns:xlink="http://www.w3.org/1999/xlink" width="722.262pt" height="211.369pt" viewBox="0 0 722.262 211.369" version="1.1">
<defs>
<clipPath id="clip1">
  <path d="M 695 35 L 722.261719 35 L 722.261719 176 L 695 176 Z M 695 35 "/>
</clipPath>
<clipPath id="clip2">
  <path d="M 0 0 L 722.261719 0 L 722.261719 9 L 0 9 Z M 0 0 "/>
</clipPath>
<clipPath id="clip3">
  <path d="M 0 203 L 722.261719 203 L 722.261719 211.367188 L 0 211.367188 Z M 0 203 "/>
</clipPath>
</defs>
<g id="surface1">
<path style=" stroke:none;fill-rule:nonzero;fill:rgb(100%,100%,100%);fill-opacity:1;" d="M 0 35.578125 L 0 175.882812 L 102.890625 175.882812 L 102.890625 151.285156 L 26.65625 151.285156 L 26.65625 35.578125 Z M 0 35.578125 "/>
<path style=" stroke:none;fill-rule:nonzero;fill:rgb(100%,100%,100%);fill-opacity:1;" d="M 257.261719 175.882812 C 239.675781 175.882812 225.179688 170.925781 213.671875 160.917969 C 202.261719 151.003906 196.460938 138.9375 196.460938 124.71875 L 196.460938 35.578125 L 222.933594 35.578125 L 222.933594 117.140625 C 222.933594 127.992188 226.207031 136.222656 232.941406 141.554688 C 239.394531 146.699219 247.535156 149.320312 257.261719 149.320312 C 266.988281 149.320312 275.125 146.699219 281.582031 141.554688 C 288.316406 136.222656 291.589844 127.992188 291.589844 117.140625 L 291.589844 35.578125 L 318.0625 35.578125 L 318.0625 124.71875 C 318.0625 138.9375 312.355469 150.910156 300.851562 160.917969 C 289.34375 170.925781 274.847656 175.882812 257.261719 175.882812 "/>
<path style=" stroke:none;fill-rule:nonzero;fill:rgb(100%,100%,100%);fill-opacity:1;" d="M 550.375 91.792969 L 506.785156 140.339844 L 463.199219 91.792969 L 463.199219 175.882812 L 436.632812 175.882812 L 436.632812 35.578125 L 444.679688 35.578125 L 506.785156 106.199219 L 568.988281 35.578125 L 577.03125 35.578125 L 577.03125 175.882812 L 550.46875 175.882812 Z M 550.375 91.792969 "/>
<g clip-path="url(#clip1)" clip-rule="nonzero">
<path style=" stroke:none;fill-rule:nonzero;fill:rgb(100%,100%,100%);fill-opacity:1;" d="M 695.605469 35.484375 L 722.261719 35.484375 L 722.261719 175.882812 L 695.605469 175.882812 Z M 695.605469 35.484375 "/>
</g>
<g clip-path="url(#clip2)" clip-rule="nonzero">
<path style=" stroke:none;fill-rule:nonzero;fill:rgb(100%,100%,100%);fill-opacity:1;" d="M 722.261719 8.175781 L 0 8.175781 L 0 0 L 722.261719 0 Z M 722.261719 8.175781 "/>
</g>
<g clip-path="url(#clip3)" clip-rule="nonzero">
<path style=" stroke:none;fill-rule:nonzero;fill:rgb(100%,100%,100%);fill-opacity:1;" d="M 722.261719 211.367188 L 0 211.367188 L 0 203.195312 L 722.261719 203.195312 Z M 722.261719 211.367188 "/>
</g>
</g>
</svg>
