<?xml version="1.0" encoding="UTF-8"?>
<svg xmlns="http://www.w3.org/2000/svg" xmlns:xlink="http://www.w3.org/1999/xlink" width="100" height="100" viewBox="0 0 100 100" version="1.1">
<g id="surface1">
<path style=" stroke:none;fill-rule:nonzero;fill:rgb(0%,0%,0%);fill-opacity:1;" d="M 44.929688 16.230469 C 41.113281 16.644531 37.199219 18.113281 34.398438 20.214844 C 28.785156 24.429688 25.441406 31.6875 26 38.457031 C 26.628906 45.957031 30.941406 53.085938 36.929688 56.5 C 40.742188 58.671875 46.328125 59.570312 50.085938 58.613281 C 50.984375 58.371094 51.1875 58.371094 52.15625 58.558594 C 53.757812 58.855469 58.300781 58.84375 59.957031 58.527344 C 64.171875 57.742188 68.171875 55.671875 71.128906 52.730469 C 72.285156 51.585938 73.714844 49.800781 73.714844 49.515625 C 73.714844 49.414062 57.484375 41.285156 57.3125 41.285156 C 57.242188 41.285156 56.8125 41.898438 56.34375 42.65625 C 55.269531 44.398438 54.101562 45.601562 52.65625 46.414062 L 51.527344 47.058594 L 50.65625 46.601562 C 50.171875 46.34375 49.257812 45.730469 48.644531 45.230469 C 45.871094 43 44.871094 40.65625 45.042969 36.785156 C 45.171875 34.042969 45.941406 32.171875 47.613281 30.628906 C 48.527344 29.769531 50.558594 28.714844 51.8125 28.429688 C 52.527344 28.269531 52.601562 28.269531 53.242188 28.65625 C 54.65625 29.484375 55.6875 30.714844 56.300781 32.3125 C 56.472656 32.769531 56.65625 33.144531 56.699219 33.144531 C 56.898438 33.144531 67.171875 28.285156 70.34375 26.6875 L 73.613281 25.058594 L 72.757812 24.058594 C 68.570312 19.199219 63.441406 16.730469 57.070312 16.472656 C 55.800781 16.429688 54.441406 16.457031 53.714844 16.558594 C 52.730469 16.6875 52.285156 16.671875 51.355469 16.5 C 50.230469 16.285156 46.058594 16.113281 44.929688 16.230469 Z M 51.386719 18.558594 C 55.144531 19.328125 58.015625 20.886719 60.800781 23.644531 C 62.257812 25.085938 63.855469 27.113281 63.855469 27.484375 C 63.84375 27.613281 58.328125 30.285156 57.8125 30.398438 C 57.714844 30.414062 57.515625 30.199219 57.355469 29.898438 C 56.898438 29.027344 55.171875 27.414062 53.984375 26.742188 C 51.101562 25.113281 47.398438 24.472656 44.769531 25.144531 C 40.558594 26.214844 37.269531 29.398438 36.015625 33.65625 C 35.171875 36.527344 35.058594 40.855469 35.769531 43.898438 C 37.027344 49.3125 40.34375 53.457031 45.730469 56.34375 L 46.929688 57 L 46.285156 57 C 43.199219 57.015625 39.15625 55.714844 36.585938 53.898438 C 32.785156 51.214844 29.886719 46.769531 28.542969 41.585938 C 28.171875 40.1875 28.101562 39.570312 28.042969 37.644531 C 27.957031 34.957031 28.15625 33.472656 28.941406 31.144531 C 29.941406 28.15625 31.558594 25.601562 33.871094 23.355469 C 36.957031 20.371094 40.429688 18.800781 45.285156 18.230469 C 46.5 18.085938 49.984375 18.269531 51.386719 18.558594 Z M 60.398438 18.871094 C 63.800781 19.558594 66.972656 21.171875 69.34375 23.429688 L 70.34375 24.398438 L 68.058594 25.542969 L 65.757812 26.699219 L 65.441406 26.144531 C 64.941406 25.257812 63.613281 23.585938 62.515625 22.457031 C 61.242188 21.144531 60.101562 20.214844 58.484375 19.199219 L 57.214844 18.414062 L 58.144531 18.5 C 58.65625 18.558594 59.671875 18.730469 60.398438 18.871094 Z M 49 27.070312 C 49.113281 27.144531 48.898438 27.328125 48.441406 27.570312 C 45.457031 29.199219 43.6875 31.742188 43.128906 35.199219 C 42.914062 36.558594 43.027344 39.742188 43.34375 40.929688 C 44.714844 46.113281 50.941406 50.355469 56.570312 49.941406 C 59.058594 49.757812 61.785156 48.800781 63.457031 47.515625 C 63.828125 47.230469 64.15625 47 64.1875 47 C 64.355469 47 70.714844 50.1875 70.714844 50.269531 C 70.714844 50.414062 69.199219 51.855469 68.242188 52.613281 C 65.8125 54.570312 62.757812 55.957031 59.65625 56.527344 C 57.886719 56.855469 54.128906 56.855469 52.285156 56.527344 C 50.558594 56.199219 48.785156 55.613281 47.113281 54.769531 C 41.886719 52.15625 38.800781 48.328125 37.613281 42.972656 C 37.414062 42.042969 37.355469 41.214844 37.371094 39.070312 C 37.386719 36.613281 37.429688 36.214844 37.769531 34.929688 C 38.6875 31.457031 40.386719 29.242188 43.214844 27.855469 C 44.828125 27.058594 45.785156 26.855469 47.457031 26.914062 C 48.214844 26.941406 48.914062 27.015625 49 27.070312 Z M 60.414062 45 C 62.429688 46 62.414062 45.972656 60.8125 46.757812 C 59.015625 47.644531 56.558594 48.144531 55.015625 47.929688 L 54.285156 47.828125 L 55.113281 47.214844 C 55.957031 46.570312 56.757812 45.699219 57.542969 44.542969 C 58.085938 43.757812 57.871094 43.714844 60.414062 45 Z M 60.414062 45 "/>
<path style=" stroke:none;fill-rule:nonzero;fill:rgb(0%,0%,0%);fill-opacity:1;" d="M 74.527344 68.230469 C 71.769531 68.828125 69.730469 70.570312 68.84375 73.070312 C 68.414062 74.285156 68.3125 76.742188 68.628906 78 C 69.1875 80.199219 70.386719 81.769531 72.242188 82.757812 C 73.714844 83.527344 74.785156 83.769531 76.644531 83.757812 C 79.929688 83.730469 82.398438 82.34375 83.757812 79.742188 C 85 77.386719 85.027344 74.230469 83.828125 71.957031 C 82.242188 68.957031 78.386719 67.398438 74.527344 68.230469 Z M 78.300781 70.855469 C 80.730469 71.628906 81.972656 73.558594 81.828125 76.34375 C 81.742188 77.984375 81.300781 78.984375 80.269531 79.914062 C 79.214844 80.855469 78.242188 81.199219 76.570312 81.199219 C 75.386719 81.199219 75.101562 81.15625 74.328125 80.800781 C 73.285156 80.328125 72.128906 79.1875 71.699219 78.230469 C 71.113281 76.886719 71.101562 74.699219 71.699219 73.371094 C 72.699219 71.113281 75.601562 70 78.300781 70.855469 Z M 78.300781 70.855469 "/>
<path style=" stroke:none;fill-rule:nonzero;fill:rgb(0%,0%,0%);fill-opacity:1;" d="M 17.171875 75.886719 L 17.214844 83.644531 L 22.613281 83.6875 L 28 83.730469 L 28 81.144531 L 20 81.144531 L 20 77 L 27.429688 77 L 27.429688 74.429688 L 20 74.429688 L 20 70.714844 L 28 70.714844 L 28 68.144531 L 17.144531 68.144531 Z M 17.171875 75.886719 "/>
<path style=" stroke:none;fill-rule:nonzero;fill:rgb(0%,0%,0%);fill-opacity:1;" d="M 32.914062 68.34375 C 32.757812 68.742188 32.941406 79.914062 33.113281 80.429688 C 33.828125 82.585938 35.6875 83.65625 39 83.8125 C 41.757812 83.941406 43.742188 83.398438 44.972656 82.171875 C 45.714844 81.441406 46.070312 80.6875 46.269531 79.429688 C 46.441406 78.386719 46.472656 73.070312 46.328125 70.085938 L 46.242188 68.128906 L 44.941406 68.171875 L 43.644531 68.214844 L 43.570312 73.785156 C 43.515625 78.714844 43.472656 79.414062 43.257812 79.8125 C 42.714844 80.800781 41.484375 81.3125 39.644531 81.3125 C 37.800781 81.3125 36.570312 80.800781 36.027344 79.8125 C 35.8125 79.414062 35.769531 78.714844 35.714844 73.785156 L 35.644531 68.214844 L 34.3125 68.171875 C 33.269531 68.144531 32.984375 68.171875 32.914062 68.34375 Z M 32.914062 68.34375 "/>
<path style=" stroke:none;fill-rule:nonzero;fill:rgb(0%,0%,0%);fill-opacity:1;" d="M 51.855469 75.855469 L 51.855469 83.570312 L 52.1875 83.644531 C 52.355469 83.6875 52.957031 83.714844 53.5 83.6875 L 54.5 83.644531 L 54.542969 80.671875 L 54.570312 77.714844 L 57.214844 77.714844 L 59.285156 80.585938 C 60.414062 82.15625 61.457031 83.515625 61.601562 83.585938 C 61.871094 83.730469 64.828125 83.730469 64.914062 83.585938 C 64.941406 83.542969 63.957031 82.085938 62.699219 80.355469 L 60.429688 77.214844 L 61.027344 76.957031 C 61.914062 76.585938 62.542969 76.058594 63.015625 75.300781 C 63.558594 74.441406 63.742188 73.742188 63.742188 72.5 C 63.730469 70.8125 63.128906 69.628906 61.929688 68.914062 C 60.898438 68.3125 59.5 68.15625 55.472656 68.144531 L 51.855469 68.144531 Z M 59.8125 71.113281 C 60.558594 71.5 60.855469 72.042969 60.855469 72.984375 C 60.855469 73.570312 60.785156 73.785156 60.441406 74.1875 C 59.84375 74.855469 59.214844 75.015625 56.757812 75.101562 L 54.570312 75.171875 L 54.570312 70.6875 L 56.898438 70.742188 C 58.957031 70.785156 59.285156 70.828125 59.8125 71.113281 Z M 59.8125 71.113281 "/>
</g>
</svg>
